<svg width="32" height="37" viewBox="0 0 32 37" fill="none" xmlns="http://www.w3.org/2000/svg">
<g id="quote-right icon">
<path id="Vector" d="M6.85714 6.9375C3.07 6.9375 0 9.97988 0 13.875C0 17.7701 3.07 20.8125 6.85714 20.8125C7.66286 20.8125 8.425 20.6459 9.14286 20.3877V20.8125C9.14286 23.3635 7.09286 25.4375 4.57143 25.4375C3.30929 25.4375 2.28571 26.4731 2.28571 27.75C2.28571 29.0269 3.30929 30.0625 4.57143 30.0625C9.61286 30.0625 13.7143 25.913 13.7143 20.8125V13.875C13.7143 9.97988 10.6429 6.9375 6.85714 6.9375ZM32 13.875C32 10.0435 28.93 6.9375 25.1429 6.9375C21.3557 6.9375 18.2857 10.0435 18.2857 13.875C18.2857 17.7065 21.3557 20.8125 25.1429 20.8125C25.9486 20.8125 26.7107 20.6459 27.4286 20.3877V20.8125C27.4286 23.3635 25.3786 25.4375 22.8571 25.4375C21.595 25.4375 20.5714 26.4731 20.5714 27.75C20.5714 29.0269 21.595 30.0625 22.8571 30.0625C27.8986 30.0625 32 25.913 32 20.8125V13.875Z" fill="#FFB21A"/>
</g>
</svg>
