<svg width="122" height="22" viewBox="0 0 122 22" fill="none" xmlns="http://www.w3.org/2000/svg">
<g id="stars">
<path id="Star 1" d="M10.0489 2.92705C10.3483 2.00574 11.6517 2.00574 11.9511 2.92705L13.2451 6.90983C13.379 7.32185 13.763 7.60081 14.1962 7.60081H18.3839C19.3527 7.60081 19.7554 8.84043 18.9717 9.40983L15.5838 11.8713C15.2333 12.126 15.0866 12.5773 15.2205 12.9894L16.5146 16.9721C16.8139 17.8934 15.7595 18.6596 14.9757 18.0902L11.5878 15.6287C11.2373 15.374 10.7627 15.374 10.4122 15.6287L7.02426 18.0902C6.24054 18.6596 5.18607 17.8934 5.48542 16.9721L6.7795 12.9894C6.91338 12.5773 6.76672 12.126 6.41623 11.8713L3.02827 9.40983C2.24456 8.84043 2.64734 7.60081 3.61606 7.60081H7.8038C8.23703 7.60081 8.62099 7.32185 8.75486 6.90983L10.0489 2.92705Z" fill="#FFB21A"/>
<path id="Star 2" d="M35.0489 2.92705C35.3483 2.00574 36.6517 2.00574 36.9511 2.92705L38.2451 6.90983C38.379 7.32185 38.763 7.60081 39.1962 7.60081H43.3839C44.3527 7.60081 44.7554 8.84043 43.9717 9.40983L40.5838 11.8713C40.2333 12.126 40.0866 12.5773 40.2205 12.9894L41.5146 16.9721C41.8139 17.8934 40.7595 18.6596 39.9757 18.0902L36.5878 15.6287C36.2373 15.374 35.7627 15.374 35.4122 15.6287L32.0243 18.0902C31.2405 18.6596 30.1861 17.8934 30.4854 16.9721L31.7795 12.9894C31.9134 12.5773 31.7667 12.126 31.4162 11.8713L28.0283 9.40983C27.2446 8.84043 27.6473 7.60081 28.6161 7.60081H32.8038C33.237 7.60081 33.621 7.32185 33.7549 6.90983L35.0489 2.92705Z" fill="#FFB21A"/>
<path id="Star 3" d="M60.0489 2.92705C60.3483 2.00574 61.6517 2.00574 61.9511 2.92705L63.2451 6.90983C63.379 7.32185 63.763 7.60081 64.1962 7.60081H68.3839C69.3527 7.60081 69.7554 8.84043 68.9717 9.40983L65.5838 11.8713C65.2333 12.126 65.0866 12.5773 65.2205 12.9894L66.5146 16.9721C66.8139 17.8934 65.7595 18.6596 64.9757 18.0902L61.5878 15.6287C61.2373 15.374 60.7627 15.374 60.4122 15.6287L57.0243 18.0902C56.2405 18.6596 55.1861 17.8934 55.4854 16.9721L56.7795 12.9894C56.9134 12.5773 56.7667 12.126 56.4162 11.8713L53.0283 9.40983C52.2446 8.84043 52.6473 7.60081 53.6161 7.60081H57.8038C58.237 7.60081 58.621 7.32185 58.7549 6.90983L60.0489 2.92705Z" fill="#FFB21A"/>
<path id="Star 4" d="M85.0489 2.92705C85.3483 2.00574 86.6517 2.00574 86.9511 2.92705L88.2451 6.90983C88.379 7.32185 88.763 7.60081 89.1962 7.60081H93.3839C94.3527 7.60081 94.7554 8.84043 93.9717 9.40983L90.5838 11.8713C90.2333 12.126 90.0866 12.5773 90.2205 12.9894L91.5146 16.9721C91.8139 17.8934 90.7595 18.6596 89.9757 18.0902L86.5878 15.6287C86.2373 15.374 85.7627 15.374 85.4122 15.6287L82.0243 18.0902C81.2405 18.6596 80.1861 17.8934 80.4854 16.9721L81.7795 12.9894C81.9134 12.5773 81.7667 12.126 81.4162 11.8713L78.0283 9.40983C77.2446 8.84043 77.6473 7.60081 78.6161 7.60081H82.8038C83.237 7.60081 83.621 7.32185 83.7549 6.90983L85.0489 2.92705Z" fill="#FFB21A"/>
<path id="Star 5" d="M110.049 2.92705C110.348 2.00574 111.652 2.00574 111.951 2.92705L113.245 6.90983C113.379 7.32185 113.763 7.60081 114.196 7.60081H118.384C119.353 7.60081 119.755 8.84043 118.972 9.40983L115.584 11.8713C115.233 12.126 115.087 12.5773 115.22 12.9894L116.515 16.9721C116.814 17.8934 115.759 18.6596 114.976 18.0902L111.588 15.6287C111.237 15.374 110.763 15.374 110.412 15.6287L107.024 18.0902C106.241 18.6596 105.186 17.8934 105.485 16.9721L106.78 12.9894C106.913 12.5773 106.767 12.126 106.416 11.8713L103.028 9.40983C102.245 8.84043 102.647 7.60081 103.616 7.60081H107.804C108.237 7.60081 108.621 7.32185 108.755 6.90983L110.049 2.92705Z" fill="#FFB21A"/>
</g>
</svg>
